<?xml version="1.0" standalone="no"?>
<!DOCTYPE svg PUBLIC "-//W3C//DTD SVG 20010904//EN"
 "http://www.w3.org/TR/2001/REC-SVG-20010904/DTD/svg10.dtd">
<svg version="1.0" xmlns="http://www.w3.org/2000/svg"
 width="500.000000pt" height="500.000000pt" viewBox="0 0 500.000000 500.000000"
 preserveAspectRatio="xMidYMid meet">
<metadata>
Created by potrace 1.14, written by Peter Selinger 2001-2017
</metadata>
<g transform="translate(0.000000,500.000000) scale(0.100000,-0.100000)"
fill="#000000" stroke="none">
<path d="M730 4854 c-303 -65 -531 -300 -589 -604 -13 -72 -14 -3424 -1 -3495
36 -187 138 -358 275 -460 22 -16 42 -33 45 -36 8 -11 123 -67 171 -85 124
-44 89 -43 1894 -41 941 1 1721 6 1735 10 14 4 39 10 55 13 17 3 34 9 39 15 6
5 16 9 24 9 32 0 154 69 221 125 101 84 186 210 232 343 l34 97 0 1750 0 1750
-25 80 c-85 276 -295 470 -572 529 -64 13 -278 15 -1773 15 -1417 -1 -1711 -3
-1765 -15z"/>
</g>
</svg>
